<?xml version="1.0" standalone="no"?><!DOCTYPE svg PUBLIC "-//W3C//DTD SVG 1.1//EN" "http://www.w3.org/Graphics/SVG/1.1/DTD/svg11.dtd"><svg t="1498116412272" class="icon" style="" viewBox="0 0 1025 1024" version="1.1" xmlns="http://www.w3.org/2000/svg" p-id="3424" xmlns:xlink="http://www.w3.org/1999/xlink" width="200.1953125" height="200"><defs><style type="text/css"></style></defs>
<path d="M960.024023 1018.106772 960.024023 1024 64.017731 1024 64.017731 1018.106772C26.785971 1004.889677 0 969.758244 0 928.015923 0 852.661647 96.024842 800.030536 96.024842 800.030536L384.009375 639.988895 384.009375 573.472118C307.537812 529.186432 256.021837 446.688282 256.021837 352.003942L256.021837 256.022205C256.021837 114.596475 370.616975 0 511.998085 0 653.379195 0 768.017582 114.595308 768.017582 256.022205L768.017582 352.003942C768.017582 446.688287 716.458358 529.186432 639.986796 573.472118L639.986796 639.988895 928.014572 800.030536C928.014572 800.030536 1023.504092 855.11852 1023.997338 928.015923 1024.309412 969.716168 997.165783 1004.890849 960.024023 1018.106772Z" p-id="3425" fill="#ffffff"></path></svg>
