<?xml version="1.0" standalone="no"?><!DOCTYPE svg PUBLIC "-//W3C//DTD SVG 1.1//EN" "http://www.w3.org/Graphics/SVG/1.1/DTD/svg11.dtd"><svg t="1498116448667" class="icon" style="" viewBox="0 0 1163 1024" version="1.1" xmlns="http://www.w3.org/2000/svg" p-id="4690" xmlns:xlink="http://www.w3.org/1999/xlink" width="227.1484375" height="200"><defs><style type="text/css"></style></defs>
<path d="M146.455182 518.108508c-33.638859 33.638859-34.115409 87.769389-1.023182 120.875634L505.00337 998.583543c33.148292 33.148292 87.306855 32.671742 120.95973-1.023182l536.609881-536.623897 0.756874-459.030262L664.549674 0 146.455182 518.108508z m716.788019-304.796094a84.755908 84.755908 0 1 1 84.755908 84.755908 84.769924 84.769924 0 0 1-84.755908-84.755908zM25.579549 519.13169c-33.638859 33.638859-34.157458 87.769389-1.065231 120.917682l359.655467 359.585386c24.332108 24.290059 59.933234 30.303005 90.488531 18.557437a83.928953 83.928953 0 0 1-30.050714-19.118085L85.050248 639.488724c-33.148292-33.148292-32.71379-87.222758 0.981134-120.917681l520.000694-517.337618L543.688057 1.023182 25.579549 519.13169z" p-id="4691" fill="#ffffff"></path></svg>
