<?xml version="1.0" standalone="no"?><!DOCTYPE svg PUBLIC "-//W3C//DTD SVG 1.1//EN" "http://www.w3.org/Graphics/SVG/1.1/DTD/svg11.dtd"><svg t="1498381814919" class="icon" style="" viewBox="0 0 1000 1000" version="1.1" xmlns="http://www.w3.org/2000/svg" p-id="1839" xmlns:xlink="http://www.w3.org/1999/xlink" width="48" height="48"><defs><style type="text/css"></style></defs>
<path d="M801.6971 127.5006v49.39051323202868l148.1828 0.1959v-49.38151932989433L801.6971 127.5006zM77.2848 177.0869h460.7569585743467v-32.916682489272276H77.28484683741141V177.08693505803058zM801.6971 489.695l148.1828 0.1959v-49.38151932989433l-148.1828-0.2039V489.69498679895025zM77.2848 489.8909h460.7569585743467v-32.91868113419102H77.28484683741141V489.8908540009873zM801.6971 818.9627l148.1828 0.1979v-49.383517974813074l-148.1828-0.2059V818.9627432600697zM77.2848 819.1606h460.7569585743467v-32.91868113419102H77.28484683741141V819.1606091070254zM669.9849 78.114c-45.4641 0-82.3216 36.855-82.3216 82.3172s36.8586 82.3172 82.3216 82.3172c45.4621 0 82.3186-36.855 82.3186-82.3172S715.447 78.114 669.9849 78.114zM669.9849 390.917c-45.4641 0-82.3216 36.855-82.3216 82.3172 0 45.4632 36.8586 82.3182 82.3216 82.3182 45.4621 0 82.3186-36.855 82.3186-82.3182C752.3035 427.772 715.447 390.917 669.9849 390.917zM669.9849 720.1857c-45.4641 0-82.3216 36.853-82.3216 82.3152 0 45.4632 36.8586 82.3172 82.3216 82.3172 45.4621 0 82.3186-36.853 82.3186-82.3172C752.3035 757.0387 715.447 720.1857 669.9849 720.1857z" p-id="1840" fill="#00BCD4"></path></svg>
